<svg xmlns="http://www.w3.org/2000/svg" viewBox="720 70 230 250" width="512" height="512">
  <rect width="100%" height="100%" fill="white" rx="80"/>
  <path fill="rgb(66,67,196)" d="M 927.755 79.2495 C 933.944 78.724 938.946 78.2913 942.961 83.9429 C 942.891 90.3048 934.081 91.3977 929.206 94.9764 C 875.164 134.643 858.327 214.128 834.293 273.434 C 829.223 288.112 821.57 300.264 805.002 303.713 C 770.44 310.908 758.986 258.042 748.009 232.701 C 742.878 220.883 737.372 211.206 730.84 200.245 C 750.682 176.317 768.735 180.227 781.097 208.038 C 788.156 223.92 794.549 239.535 799.145 256.388 C 801.998 247.152 806.039 237.035 809.65 228.011 C 832.408 171.129 859.217 91.1389 927.755 79.2495 z"/>
</svg>
