<svg version="1.1" xmlns="http://www.w3.org/2000/svg" style="display: block;" viewBox="0 0 2048 459" width="2048" height="459" preserveAspectRatio="none">
<path transform="translate(0,0)" fill="rgb(19,22,28)" d="M 1246.18 155.164 C 1271.76 152.562 1287.71 159.182 1303.79 179.043 C 1303.56 172.694 1303.93 164.495 1304.05 158.01 L 1332.37 157.99 L 1332.28 303.292 L 1303.83 303.374 L 1303.93 281.592 C 1301.51 284.753 1298.35 287.868 1295.56 290.758 C 1287.27 297.983 1277.29 303.007 1266.55 305.369 C 1250.4 308.756 1233.51 305.077 1219.82 296.107 C 1170.47 263.778 1175.98 181.103 1231.99 159.018 C 1236.79 157.127 1241.15 156.186 1246.18 155.164 z M 1267.4 278.732 C 1322.64 263.402 1313.51 178.424 1253.11 182.129 C 1194.12 198.485 1209.99 285.14 1267.4 278.732 z"/>
<path transform="translate(0,0)" fill="rgb(19,22,28)" d="M 939.159 155.264 C 964.468 152.6 981.689 158.622 997.298 179.173 L 997.423 158.093 L 1026.02 157.941 L 1026.18 303.333 L 997.145 303.406 C 997.485 297.217 997.129 288.615 997.044 282.246 C 995.249 284.487 992.656 287.126 990.648 289.277 C 968.705 309.388 939.792 312.277 914.584 296.695 C 870.299 269.319 868.373 197.986 910.141 167.645 C 919.993 160.488 927.474 157.843 939.159 155.264 z M 960.106 278.808 C 1019.42 265.598 1003.84 174.587 947.838 182.187 C 890.591 195.342 900.63 283.064 960.106 278.808 z"/>
<path transform="translate(0,0)" fill="rgb(19,22,28)" d="M 355.886 155.269 C 380.06 153.182 399.456 158.462 413.455 179.71 L 413.567 157.916 L 442.321 157.89 L 442.33 303.363 C 432.847 303.178 422.953 303.366 413.437 303.407 C 413.597 298.538 414.338 288.471 412.982 284.301 L 411.49 283.99 L 408.806 287.118 C 399.894 295.396 388.778 303.478 376.546 305.225 C 282.894 318.599 265.012 172.561 355.886 155.269 z M 376.87 279.022 C 432.698 265.414 422.952 177.785 363.984 182.176 C 350.571 185.207 341.532 190.25 334.014 202.115 C 326.491 214.11 324.05 228.606 327.231 242.403 C 332.709 266.447 351.645 281.549 376.87 279.022 z"/>
<path transform="translate(0,0)" fill="rgb(19,22,28)" d="M 1504.03 155.241 C 1528.88 152.687 1545.93 158.959 1561.13 179.127 L 1561.32 157.989 C 1570.66 157.774 1580.61 157.901 1590 157.862 L 1589.92 303.373 C 1580.43 303.256 1570.6 303.401 1561.08 303.418 L 1561.36 281.256 C 1558.84 284.302 1556.18 287.155 1553.5 290.065 C 1530.69 309.614 1502.18 312.34 1476.75 295.638 C 1441.2 272.296 1434.09 219.718 1457.16 185.305 C 1468.72 168.072 1484.03 159.125 1504.03 155.241 z M 1525.57 278.873 C 1580.14 263.03 1571.24 178.304 1510.59 182.225 C 1497.03 185.873 1488.09 191.114 1480.82 203.68 C 1473.71 216.047 1471.8 230.729 1475.51 244.504 C 1482.17 269.156 1500.36 280.784 1525.57 278.873 z"/>
<path transform="translate(0,0)" fill="rgb(19,22,28)" d="M 202.973 155.216 C 206.385 154.821 212.42 154.591 215.845 154.615 C 233.692 154.647 250.794 161.78 263.374 174.44 C 281.501 192.954 283.544 214.162 283.329 238.456 C 245.779 238.794 208.227 238.776 170.677 238.402 C 179.988 280.441 222.85 291.802 255.486 266.221 C 256.639 265.014 258.247 263.817 259.578 262.763 C 265.672 263.898 273.074 275.434 277.511 280.921 C 266.229 292.806 251.645 301.039 235.64 304.556 C 214.27 309.242 192.518 305.504 174.304 294.109 C 129.884 266.318 130.415 194.662 173.972 166.326 C 184.3 159.607 191.181 157.728 202.973 155.216 z M 171.66 215.303 L 215.75 215.248 C 227.979 215.279 242.14 214.958 254.205 215.405 C 248.386 192.47 234.326 179.858 209.974 181.33 C 188.394 184.414 177.854 194.872 171.66 215.303 z"/>
<path transform="translate(0,0)" fill="rgb(19,22,28)" d="M 1827 155.202 C 1830.38 154.854 1835.63 154.675 1839.02 154.653 C 1856.97 154.461 1874.26 161.39 1887.1 173.923 C 1905.83 192.476 1907.24 214.245 1907.37 238.723 L 1795.04 238.458 C 1804.45 281.359 1846.81 291.197 1879.8 266.065 L 1884.79 261.487 C 1890.52 267.99 1896.31 274.442 1902.16 280.844 C 1890.56 292.892 1875.6 301.173 1859.23 304.612 C 1765.81 324.374 1728.11 197.766 1810.96 159.641 C 1815.73 157.447 1821.82 156.268 1827 155.202 z M 1795.87 215.386 L 1841.14 215.224 C 1853.34 215.263 1866 215.118 1878.16 215.35 C 1872.78 192.498 1857.93 179.786 1833.81 181.277 C 1813.61 184.272 1800.66 195.464 1795.87 215.386 z"/>
<path transform="translate(0,0)" fill="rgb(66,67,196)" d="M 927.755 79.2495 C 933.944 78.724 938.946 78.2913 942.961 83.9429 C 942.891 90.3048 934.081 91.3977 929.206 94.9764 C 875.164 134.643 858.327 214.128 834.293 273.434 C 829.223 288.112 821.57 300.264 805.002 303.713 C 770.44 310.908 758.986 258.042 748.009 232.701 C 742.878 220.883 737.372 211.206 730.84 200.245 C 750.682 176.317 768.735 180.227 781.097 208.038 C 788.156 223.92 794.549 239.535 799.145 256.388 C 801.998 247.152 806.039 237.035 809.65 228.011 C 832.408 171.129 859.217 91.1389 927.755 79.2495 z"/>
<path transform="translate(0,0)" fill="rgb(19,22,28)" d="M 699.107 158.043 L 731.888 157.785 C 716.969 190.983 700.364 235.648 686.922 269.743 C 678.131 290.469 670.198 312.851 661.963 333.874 C 648.927 367.152 626.961 374.35 594.003 364.907 C 596.028 356.374 597.894 347.803 599.601 339.201 C 630.445 348.91 634 326.822 642.817 303.321 C 635.399 287.557 627.92 268.806 620.996 252.601 L 580.357 157.939 C 590.982 158.228 602.91 157.95 613.634 157.932 C 622.574 177.59 630.921 200.967 639.57 221.093 C 643.811 230.962 655.18 258.213 657.643 267.797 L 699.107 158.043 z"/>
<path transform="translate(0,0)" fill="rgb(19,22,28)" d="M 509.34 155.212 C 512.19 154.883 515.053 154.674 517.921 154.586 C 543.668 153.987 558.262 161.418 576.268 178.615 C 570.543 184.874 564.885 191.329 559.237 197.669 C 557.067 195.212 553.548 192.074 550.959 189.987 C 540.926 181.992 528.136 178.292 515.384 179.696 C 506.869 180.661 491.161 188.791 493.499 198.236 C 497.348 213.786 529.97 215.5 542.474 220.722 C 550.384 224.026 558.052 225.857 564.928 231.492 C 582.891 243.892 583.179 269.33 570.95 285.879 C 561.424 298.77 544.573 304.169 528.886 306.319 C 526.294 306.476 523.697 306.568 521.1 306.596 C 496.307 306.735 478.232 297.525 461.001 280.523 L 481.018 261.087 C 485.364 265.726 488.793 269.193 494.073 272.806 C 504.994 280.33 518.452 283.218 531.498 280.836 C 541.884 278.841 551.937 271.217 548.934 259.887 C 544.876 245.923 517.106 242.174 504.202 239.075 C 447.995 225.572 452.847 166.838 509.34 155.212 z"/>
<path transform="translate(0,0)" fill="rgb(19,22,28)" d="M 1107.23 155.225 C 1138.15 152.307 1160.41 160.803 1178.93 185.998 C 1173.17 192.59 1166.47 199.635 1160.52 206.143 C 1159.22 204.369 1157.87 202.631 1156.48 200.932 C 1147.9 190.358 1139.13 183.74 1124.96 182.241 C 1062.37 175.617 1058.22 272.927 1116.54 279.5 C 1130.24 281.044 1141.52 274.869 1151.58 266.352 C 1154.68 262.991 1157.47 259.086 1160.21 255.412 C 1165.36 260.88 1173.9 267.8 1179.79 272.85 C 1179.48 273.38 1179.15 273.903 1178.8 274.417 C 1168.31 290.305 1151.91 301.343 1133.24 305.075 C 1036.54 324.263 1008.21 174.774 1107.23 155.225 z"/>
<path transform="translate(0,0)" fill="rgb(19,22,28)" d="M 1374.28 118.328 C 1382.86 117.901 1394.81 118.203 1403.63 118.195 C 1403.3 131.242 1403.5 144.992 1403.5 158.096 L 1436.91 158.002 L 1436.88 185.41 C 1425.96 185.566 1414.55 185.355 1403.59 185.312 C 1402.89 210.478 1403.18 236.09 1403.36 261.269 C 1403.5 280.934 1414.66 281.086 1429.85 277.699 C 1430.32 283.544 1431.07 289.748 1431.67 295.616 C 1432.06 298.101 1432.16 298.569 1431.13 300.822 C 1426.16 304.473 1421.46 305.265 1415.39 305.253 C 1369.42 305.167 1374.15 271.413 1374.27 238.567 L 1374.31 185.197 C 1366.04 185.557 1356.29 185.371 1347.91 185.424 L 1347.9 158.019 L 1374.41 158.081 L 1374.28 118.328 z"/>
<path transform="translate(0,0)" fill="rgb(19,22,28)" d="M 1742.9 155.214 C 1751.55 154.078 1757.6 154.615 1765.6 157.938 C 1763.15 168.259 1760.8 178.602 1758.53 188.964 C 1736.69 179.512 1715.13 190.413 1710.04 213.697 C 1707.72 224.32 1708.62 239.106 1708.64 250.2 L 1708.82 303.388 L 1680.88 303.377 L 1679.16 302.016 L 1679.15 158.093 L 1708.08 157.783 L 1708.13 182.599 C 1708.78 181.268 1709.48 179.963 1710.23 178.688 C 1718.11 165.373 1728.27 158.961 1742.9 155.214 z"/>
<path transform="translate(0,0)" fill="rgb(19,22,28)" d="M 1620.41 157.884 L 1649.59 157.851 C 1649.56 194.486 1649.78 262.593 1649.43 302.07 C 1648.9 302.62 1648.45 303.089 1648.08 303.479 L 1620.35 303.445 C 1621.88 258.229 1620.46 203.893 1620.41 157.884 z"/>
<path transform="translate(0,0)" fill="rgb(19,22,28)" d="M 1631.09 92.1946 C 1641.58 90.1418 1651.75 96.9799 1653.82 107.473 C 1655.88 117.966 1649.05 128.146 1638.56 130.218 C 1628.05 132.292 1617.86 125.453 1615.79 114.946 C 1613.73 104.44 1620.58 94.25 1631.09 92.1946 z"/>
</svg>